<?xml version="1.0" standalone="no"?>
<!DOCTYPE svg PUBLIC "-//W3C//DTD SVG 1.1//EN" "http://www.w3.org/Graphics/SVG/1.1/DTD/svg11.dtd">
<svg xmlns="http://www.w3.org/2000/svg" id="Layer_1" data-name="Layer 1" viewBox="0 0 102.71 139.37" width="102.70999908447266" height="139.3699951171875"><defs><style>.cls-1{fill:#4f4f4f;}</style></defs><polygon class="cls-1" points="0 4.79 21.82 10.64 21.82 88.34 0 93.13 0 4.79"/><polygon class="cls-1" points="40.98 4.79 40.98 39.91 61.73 39.91 61.73 11.71 40.98 4.79"/><polygon class="cls-1" points="40.98 58.54 61.73 58.54 61.73 89.41 40.98 96.86 40.98 58.54"/><polygon class="cls-1" points="81.96 0 81.96 99.52 102.71 87.81 102.71 10.64 81.96 0"/><path class="cls-1" d="M94.06,173.4v21.06H89.15v-8.9H80.59v8.9H75.68V173.4h4.91v8.8h8.56v-8.8Z" transform="translate(-73.64 -55.31)"/><path class="cls-1" d="M106.92,190.6a4.4,4.4,0,0,0,1.75-.33,3.41,3.41,0,0,0,1.31-.93,4.08,4.08,0,0,0,.82-1.48,6.38,6.38,0,0,0,.28-2V173.4H116v12.47a9.76,9.76,0,0,1-.63,3.56,7.82,7.82,0,0,1-1.79,2.79,8.2,8.2,0,0,1-2.85,1.82,11.32,11.32,0,0,1-7.56,0,8.25,8.25,0,0,1-2.84-1.82,7.82,7.82,0,0,1-1.79-2.79,9.76,9.76,0,0,1-.63-3.56V173.4h4.89v12.46a6.47,6.47,0,0,0,.28,2,4.17,4.17,0,0,0,.82,1.48,3.4,3.4,0,0,0,1.3.94A4.45,4.45,0,0,0,106.92,190.6Z" transform="translate(-73.64 -55.31)"/><path class="cls-1" d="M138.88,183.92a11.07,11.07,0,0,1-.79,4.21,9.67,9.67,0,0,1-2.22,3.34,10.11,10.11,0,0,1-3.44,2.2,12.36,12.36,0,0,1-4.48.79h-8.17V173.4H128a12.15,12.15,0,0,1,4.48.8,10.11,10.11,0,0,1,3.44,2.2,9.54,9.54,0,0,1,2.22,3.33A11,11,0,0,1,138.88,183.92Zm-5,0a9.07,9.07,0,0,0-.41-2.81,6,6,0,0,0-1.16-2.14,4.94,4.94,0,0,0-1.86-1.34,6.33,6.33,0,0,0-2.5-.47h-3.26V190.7H128a6.33,6.33,0,0,0,2.5-.47,4.94,4.94,0,0,0,1.86-1.34,6,6,0,0,0,1.16-2.14A9.16,9.16,0,0,0,133.88,183.92Z" transform="translate(-73.64 -55.31)"/><path class="cls-1" d="M150.49,186.45v8h-4.88v-8l-7.63-13h4.31a1.53,1.53,0,0,1,1,.3,2.46,2.46,0,0,1,.62.76l3,6.13c.25.48.48.93.68,1.35s.38.83.54,1.23c.14-.41.31-.83.49-1.25s.41-.86.66-1.33l2.95-6.13a4,4,0,0,1,.24-.38,2.73,2.73,0,0,1,.34-.34,1.61,1.61,0,0,1,.45-.24,1.69,1.69,0,0,1,.56-.1h4.33Z" transform="translate(-73.64 -55.31)"/><path class="cls-1" d="M176.36,194.46h-3.79a1.63,1.63,0,0,1-1-.3,2,2,0,0,1-.6-.76l-1.24-3.67h-8l-1.25,3.67a1.68,1.68,0,0,1-.57.73,1.56,1.56,0,0,1-1,.33h-3.81l8.15-21.06h5Zm-7.76-8.05-1.95-5.77c-.15-.36-.3-.79-.46-1.29s-.33-1-.5-1.61c-.14.59-.29,1.13-.46,1.63s-.32.94-.46,1.3l-1.94,5.74Z" transform="translate(-73.64 -55.31)"/></svg>